<svg width="889" height="73" viewBox="0 0 889 73" fill="none" xmlns="http://www.w3.org/2000/svg">
<path d="M42.627 72.1492V0.769531H88.5139V14.0258H57.9226V29.9332H88.5139V43.1894H57.9226V72.1492H42.627Z" fill="#F2F2F2"/>
<path d="M92.0723 0.769531H107.368V58.893H142.038V72.1492H92.0723V0.769531Z" fill="#F2F2F2"/>
<path d="M200.783 72.1492L194.869 51.4491H165.807L159.893 72.1492H145.617L166.113 0.769531H180.389L169.682 38.1929H191.096L180.389 0.769531H195.685L216.079 72.1492H200.783Z" fill="#F2F2F2"/>
<path d="M308.871 72.1492L302.957 51.4491H273.895L267.981 72.1492H253.705L274.201 0.769531H288.477L277.77 38.1929H299.184L288.477 0.769531H303.773L324.167 72.1492H308.871Z" fill="#F2F2F2"/>
<path d="M235.446 72.1492L255.738 0.769531H270.014L249.722 72.1492H235.446ZM214.95 0.769531L235.446 72.1492H220.15L199.654 0.769531H214.95Z" fill="#F2F2F2"/>
<rect x="29.2266" y="0.769531" width="10.707" height="71.3797" fill="#F2F2F2"/>
<rect x="18.0117" y="0.769531" width="8.15768" height="71.3797" fill="#F2F2F2"/>
<rect x="8.31836" y="0.769531" width="5.09855" height="71.3797" fill="#F2F2F2"/>
<rect x="0.166016" y="0.769531" width="2.54927" height="71.3797" fill="#F2F2F2"/>
<path d="M478.9 71.7124V26.7695H507.792V35.1161H488.531V45.1319H507.792V53.4784H488.531V71.7124H478.9Z" fill="#F2F2F2"/>
<path d="M510.033 26.7695H519.664V63.3659H541.493V71.7124H510.033V26.7695Z" fill="#F2F2F2"/>
<path d="M578.482 71.7124L574.759 58.679H556.46L552.737 71.7124H543.748L556.653 26.7695H565.642L558.9 50.3324H572.383L565.642 26.7695H575.272L588.113 71.7124H578.482Z" fill="#F2F2F2"/>
<path d="M646.537 71.7124L642.813 58.679H624.515L620.791 71.7124H611.803L624.708 26.7695H633.696L626.955 50.3324H640.438L633.696 26.7695H643.327L656.168 71.7124H646.537Z" fill="#F2F2F2"/>
<path d="M600.305 71.7124L613.082 26.7695H622.07L609.294 71.7124H600.305ZM587.4 26.7695L600.305 71.7124H590.675L577.77 26.7695H587.4Z" fill="#F2F2F2"/>
<rect x="470.463" y="26.7695" width="6.74143" height="44.9429" fill="#F2F2F2"/>
<rect x="463.404" y="26.7695" width="5.13633" height="44.9429" fill="#F2F2F2"/>
<rect x="457.299" y="26.7695" width="3.2102" height="44.9429" fill="#F2F2F2"/>
<rect x="452.166" y="26.7695" width="1.6051" height="44.9429" fill="#F2F2F2"/>
<path d="M803.01 71.3596V49.7695H816.889V53.7791H807.636V58.5906H816.889V62.6002H807.636V71.3596H803.01Z" fill="#F2F2F2"/>
<path d="M817.965 49.7695H822.591V67.35H833.078V71.3596H817.965V49.7695Z" fill="#F2F2F2"/>
<path d="M850.846 71.3596L849.057 65.0985H840.267L838.478 71.3596H834.16L840.36 49.7695H844.678L841.439 61.0889H847.916L844.678 49.7695H849.304L855.473 71.3596H850.846Z" fill="#F2F2F2"/>
<path d="M883.54 71.3596L881.751 65.0985H872.96L871.172 71.3596H866.854L873.053 49.7695H877.371L874.132 61.0889H880.609L877.371 49.7695H881.997L888.166 71.3596H883.54Z" fill="#F2F2F2"/>
<path d="M861.332 71.3596L867.469 49.7695H871.788L865.65 71.3596H861.332ZM855.132 49.7695L861.332 71.3596H856.705L850.506 49.7695H855.132Z" fill="#F2F2F2"/>
<rect x="798.955" y="49.7695" width="3.23851" height="21.5901" fill="#F2F2F2"/>
<rect x="795.564" y="49.7695" width="2.46744" height="21.5901" fill="#F2F2F2"/>
<rect x="792.631" y="49.7695" width="1.54215" height="21.5901" fill="#F2F2F2"/>
<rect x="790.166" y="49.7695" width="0.771074" height="21.5901" fill="#F2F2F2"/>
</svg>
