<svg width="889" height="198" viewBox="0 0 889 198" fill="none" xmlns="http://www.w3.org/2000/svg">
<path d="M111.834 197.636V0.766602H238.393V37.328H154.02V81.2017H238.393V117.763H154.02V197.636H111.834Z" fill="#F2F2F2"/>
<path d="M248.018 0.766602H290.204V161.074H385.826V197.636H248.018V0.766602Z" fill="#F2F2F2"/>
<path d="M547.902 197.636L531.59 140.544H451.436L435.124 197.636H395.75L452.28 0.766602H491.653L462.123 103.982H521.184L491.653 0.766602H533.84L590.088 197.636H547.902Z" fill="#F2F2F2"/>
<path d="M846.021 197.636L829.709 140.544H749.555L733.243 197.636H693.869L750.399 0.766602H789.773L760.242 103.982H819.303L789.773 0.766602H831.959L888.207 197.636H846.021Z" fill="#F2F2F2"/>
<path d="M643.509 197.636L699.476 0.766602H738.85L682.883 197.636H643.509ZM586.979 0.766602L643.509 197.636H601.323L544.793 0.766602H586.979Z" fill="#F2F2F2"/>
<rect x="72.6777" y="0.766602" width="29.5304" height="196.869" fill="#F2F2F2"/>
<rect x="40.5527" y="0.766602" width="22.4993" height="196.869" fill="#F2F2F2"/>
<rect x="16.8652" y="0.766602" width="14.0621" height="196.869" fill="#F2F2F2"/>
<rect x="0.207031" y="0.766602" width="7.03104" height="196.869" fill="#F2F2F2"/>
</svg>
