<svg width="126" height="29" viewBox="0 0 126 29" fill="none" xmlns="http://www.w3.org/2000/svg">
<path d="M16.8672 28.1398V0.601562H34.5704V5.71581H22.7682V11.8529H34.5704V16.9672H22.7682V28.1398H16.8672Z" fill="#F2F2F2"/>
<path d="M35.9473 0.601562H41.8483V23.0256H55.2241V28.1398H35.9473V0.601562Z" fill="#F2F2F2"/>
<path d="M77.8847 28.1398L75.603 20.1537H64.391L62.1092 28.1398H56.6016L64.509 0.601562H70.0166L65.8859 15.0395H74.1474L70.0166 0.601562H75.9177L83.7858 28.1398H77.8847Z" fill="#F2F2F2"/>
<path d="M119.586 28.1398L117.304 20.1537H106.092L103.81 28.1398H98.3027L106.21 0.601562H111.718L107.587 15.0395H115.849L111.718 0.601562H117.619L125.487 28.1398H119.586Z" fill="#F2F2F2"/>
<path d="M91.2616 28.1398L99.0903 0.601562H104.598L96.7693 28.1398H91.2616ZM83.3542 0.601562L91.2616 28.1398H85.3605L77.4531 0.601562H83.3542Z" fill="#F2F2F2"/>
<rect x="11.7012" y="0.601562" width="4.13074" height="27.5383" fill="#F2F2F2"/>
<rect x="7.37109" y="0.601562" width="3.14723" height="27.5383" fill="#F2F2F2"/>
<rect x="3.63281" y="0.601562" width="1.96702" height="27.5383" fill="#F2F2F2"/>
<rect x="0.488281" y="0.601562" width="0.98351" height="27.5383" fill="#F2F2F2"/>
</svg>
